STARTFONT 2.1
FONT -Danfuzz-Elseif-Bold-R-Normal--15-140-75-75-M-90-ISO8859-1
SIZE 14 75 75
FONTBOUNDINGBOX 9 15 0 -2
COMMENT "This bdf font was generated from a postscript font, Elseif-bold, by pfaedit"
STARTPROPERTIES 24
FONT_ASCENT 13
FONT_DESCENT 2
QUAD_WIDTH 15
X_HEIGHT 7
CAP_HEIGHT 11
FONTNAME_REGISTRY ""
FAMILY_NAME "Elseif"
FOUNDRY "Danfuzz"
WEIGHT_NAME "Bold"
SETWIDTH_NAME "Normal"
SLANT "R"
ADD_STYLE_NAME ""
PIXEL_SIZE 15
POINT_SIZE 140
RESOLUTION_X 75
RESOLUTION_Y 75
RESOLUTION 75
SPACING "M"
AVERAGE_WIDTH 90
CHARSET_REGISTRY "ISO8859"
CHARSET_ENCODING "1"
CHARSET_COLLECTIONS "ASCII ISO8859-1"
FULL_NAME "Elseif-bold"
COPYRIGHT "2002 Dan Bornstein, <http://www.milk.com/>"
ENDPROPERTIES
CHARS 192
STARTCHAR .notdef
ENCODING 0
SWIDTH 600 0
DWIDTH 9 0
BBX 8 15 0 -2
BITMAP
3C
7E
7E
7E
7E
3C
FF
FF
7E
18
3C
7E
7E
E7
E7
ENDCHAR
STARTCHAR space
ENCODING 32
SWIDTH 600 0
DWIDTH 9 0
BBX 1 1 0 0
BITMAP
00
ENDCHAR
STARTCHAR exclam
ENCODING 33
SWIDTH 600 0
DWIDTH 9 0
BBX 3 12 3 0
BITMAP
E0
E0
E0
E0
E0
E0
E0
E0
00
00
E0
E0
ENDCHAR
STARTCHAR quotedbl
ENCODING 34
SWIDTH 600 0
DWIDTH 9 0
BBX 8 5 0 7
BITMAP
77
77
77
EE
EE
ENDCHAR
STARTCHAR numbersign
ENCODING 35
SWIDTH 600 0
DWIDTH 9 0
BBX 9 10 0 1
BITMAP
7700
7700
FF80
FF80
7700
7700
FF80
FF80
7700
7700
ENDCHAR
STARTCHAR dollar
ENCODING 36
SWIDTH 600 0
DWIDTH 9 0
BBX 8 12 0 0
BITMAP
1C
1C
7E
FF
EC
FE
7F
1B
FF
7E
1C
1C
ENDCHAR
STARTCHAR percent
ENCODING 37
SWIDTH 600 0
DWIDTH 9 0
BBX 8 14 0 -1
BITMAP
60
97
97
9E
6E
1C
1C
38
38
76
79
E9
E9
06
ENDCHAR
STARTCHAR ampersand
ENCODING 38
SWIDTH 600 0
DWIDTH 9 0
BBX 9 12 0 0
BITMAP
3800
7C00
EE00
EE00
7C00
7800
EC00
EF80
EF00
EE00
FF00
7F80
ENDCHAR
STARTCHAR quotesingle
ENCODING 39
SWIDTH 600 0
DWIDTH 9 0
BBX 4 5 2 7
BITMAP
70
70
70
E0
E0
ENDCHAR
STARTCHAR parenleft
ENCODING 40
SWIDTH 600 0
DWIDTH 9 0
BBX 5 12 2 0
BITMAP
38
78
F0
E0
E0
E0
E0
E0
E0
F0
78
38
ENDCHAR
STARTCHAR parenright
ENCODING 41
SWIDTH 600 0
DWIDTH 9 0
BBX 5 12 2 0
BITMAP
E0
F0
78
38
38
38
38
38
38
78
F0
E0
ENDCHAR
STARTCHAR asterisk
ENCODING 42
SWIDTH 600 0
DWIDTH 9 0
BBX 9 9 0 2
BITMAP
1C00
1C00
FF80
FF80
7F00
3E00
7F00
F780
E380
ENDCHAR
STARTCHAR plus
ENCODING 43
SWIDTH 600 0
DWIDTH 9 0
BBX 7 6 1 3
BITMAP
38
38
FE
FE
38
38
ENDCHAR
STARTCHAR comma
ENCODING 44
SWIDTH 600 0
DWIDTH 9 0
BBX 4 5 2 -2
BITMAP
70
70
70
E0
E0
ENDCHAR
STARTCHAR hyphen
ENCODING 45
SWIDTH 600 0
DWIDTH 9 0
BBX 8 2 0 5
BITMAP
FF
FF
ENDCHAR
STARTCHAR period
ENCODING 46
SWIDTH 600 0
DWIDTH 9 0
BBX 3 2 3 0
BITMAP
E0
E0
ENDCHAR
STARTCHAR slash
ENCODING 47
SWIDTH 600 0
DWIDTH 9 0
BBX 8 12 0 0
BITMAP
07
07
0E
0E
1C
1C
38
38
70
70
E0
E0
ENDCHAR
STARTCHAR zero
ENCODING 48
SWIDTH 600 0
DWIDTH 9 0
BBX 8 12 0 0
BITMAP
7E
FF
E7
EF
EF
EF
F7
F7
F7
E7
FF
7E
ENDCHAR
STARTCHAR one
ENCODING 49
SWIDTH 600 0
DWIDTH 9 0
BBX 7 12 1 0
BITMAP
38
78
F8
F8
38
38
38
38
38
38
FE
FE
ENDCHAR
STARTCHAR two
ENCODING 50
SWIDTH 600 0
DWIDTH 9 0
BBX 8 12 0 0
BITMAP
7E
FF
E7
07
0F
1E
3C
78
F0
E7
FF
FF
ENDCHAR
STARTCHAR three
ENCODING 51
SWIDTH 600 0
DWIDTH 9 0
BBX 8 12 0 0
BITMAP
FF
FF
0F
1E
3C
7E
07
07
07
E7
FF
7E
ENDCHAR
STARTCHAR four
ENCODING 52
SWIDTH 600 0
DWIDTH 9 0
BBX 9 12 0 0
BITMAP
1F00
3F00
3F00
7700
7700
E700
FF00
FF00
0700
0700
0F80
0F80
ENDCHAR
STARTCHAR five
ENCODING 53
SWIDTH 600 0
DWIDTH 9 0
BBX 8 12 0 0
BITMAP
FF
FF
E0
E0
FE
FF
07
07
07
E7
FF
7E
ENDCHAR
STARTCHAR six
ENCODING 54
SWIDTH 600 0
DWIDTH 9 0
BBX 8 12 0 0
BITMAP
7E
FE
E0
E0
FE
FF
E7
E7
E7
E7
FF
7E
ENDCHAR
STARTCHAR seven
ENCODING 55
SWIDTH 600 0
DWIDTH 9 0
BBX 8 12 0 0
BITMAP
FF
FF
E7
0E
0E
1C
1C
38
38
38
38
38
ENDCHAR
STARTCHAR eight
ENCODING 56
SWIDTH 600 0
DWIDTH 9 0
BBX 8 12 0 0
BITMAP
7E
FF
E7
E7
FF
7E
E7
E7
E7
E7
FF
7E
ENDCHAR
STARTCHAR nine
ENCODING 57
SWIDTH 600 0
DWIDTH 9 0
BBX 8 12 0 0
BITMAP
7E
FF
E7
E7
E7
E7
FF
7F
07
07
7F
7E
ENDCHAR
STARTCHAR colon
ENCODING 58
SWIDTH 600 0
DWIDTH 9 0
BBX 3 8 3 2
BITMAP
E0
E0
00
00
00
00
E0
E0
ENDCHAR
STARTCHAR semicolon
ENCODING 59
SWIDTH 600 0
DWIDTH 9 0
BBX 4 11 2 -1
BITMAP
70
70
00
00
00
00
70
70
70
E0
E0
ENDCHAR
STARTCHAR less
ENCODING 60
SWIDTH 600 0
DWIDTH 9 0
BBX 8 11 0 0
BITMAP
07
0F
1E
3C
78
F0
78
3C
1E
0F
07
ENDCHAR
STARTCHAR equal
ENCODING 61
SWIDTH 600 0
DWIDTH 9 0
BBX 8 6 0 3
BITMAP
FF
FF
00
00
FF
FF
ENDCHAR
STARTCHAR greater
ENCODING 62
SWIDTH 600 0
DWIDTH 9 0
BBX 8 11 1 0
BITMAP
E0
F0
78
3C
1E
0F
1E
3C
78
F0
E0
ENDCHAR
STARTCHAR question
ENCODING 63
SWIDTH 600 0
DWIDTH 9 0
BBX 8 12 0 0
BITMAP
7E
FF
E7
07
0F
1E
3C
38
00
00
38
38
ENDCHAR
STARTCHAR at
ENCODING 64
SWIDTH 600 0
DWIDTH 9 0
BBX 9 12 0 0
BITMAP
7E00
FF00
E700
E700
EF00
FB00
FB80
EF80
E000
E700
FF00
7E00
ENDCHAR
STARTCHAR A
ENCODING 65
SWIDTH 600 0
DWIDTH 9 0
BBX 9 12 0 0
BITMAP
1C00
3E00
3E00
7700
7700
7700
7F00
FF80
E380
E380
E380
E380
ENDCHAR
STARTCHAR B
ENCODING 66
SWIDTH 600 0
DWIDTH 9 0
BBX 8 12 0 0
BITMAP
FC
FE
EE
EE
FC
FE
E7
E7
E7
E7
FF
FE
ENDCHAR
STARTCHAR C
ENCODING 67
SWIDTH 600 0
DWIDTH 9 0
BBX 8 12 0 0
BITMAP
7E
FF
E7
E0
E0
E0
E0
E0
E0
E7
FF
7E
ENDCHAR
STARTCHAR D
ENCODING 68
SWIDTH 600 0
DWIDTH 9 0
BBX 8 12 0 0
BITMAP
FC
FE
EE
E7
E7
E7
E7
E7
E7
EE
FE
FC
ENDCHAR
STARTCHAR E
ENCODING 69
SWIDTH 600 0
DWIDTH 9 0
BBX 8 12 0 0
BITMAP
FF
FF
E3
E0
E0
FC
FC
E0
E0
E3
FF
FF
ENDCHAR
STARTCHAR F
ENCODING 70
SWIDTH 600 0
DWIDTH 9 0
BBX 8 12 0 0
BITMAP
FF
FF
E3
E0
E0
FC
FC
E0
E0
E0
E0
E0
ENDCHAR
STARTCHAR G
ENCODING 71
SWIDTH 600 0
DWIDTH 9 0
BBX 9 12 0 0
BITMAP
7E00
FF00
E700
E000
E000
EF80
EF80
E700
E700
E700
FF00
7B00
ENDCHAR
STARTCHAR H
ENCODING 72
SWIDTH 600 0
DWIDTH 9 0
BBX 9 12 0 0
BITMAP
E380
E380
E380
E380
E380
FF80
FF80
E380
E380
E380
E380
E380
ENDCHAR
STARTCHAR I
ENCODING 73
SWIDTH 600 0
DWIDTH 9 0
BBX 7 12 1 0
BITMAP
FE
FE
38
38
38
38
38
38
38
38
FE
FE
ENDCHAR
STARTCHAR J
ENCODING 74
SWIDTH 600 0
DWIDTH 9 0
BBX 9 12 0 0
BITMAP
3F80
3F80
0E00
0E00
0E00
0E00
0E00
0E00
0E00
EE00
FE00
7C00
ENDCHAR
STARTCHAR K
ENCODING 75
SWIDTH 600 0
DWIDTH 9 0
BBX 8 12 0 0
BITMAP
E7
E7
E7
EE
FC
F8
F8
FC
EE
E7
E7
E7
ENDCHAR
STARTCHAR L
ENCODING 76
SWIDTH 600 0
DWIDTH 9 0
BBX 8 12 0 0
BITMAP
E0
E0
E0
E0
E0
E0
E0
E0
E0
E3
FF
FF
ENDCHAR
STARTCHAR M
ENCODING 77
SWIDTH 600 0
DWIDTH 9 0
BBX 8 12 0 0
BITMAP
C3
C3
E7
E7
FF
FF
FF
FF
FF
E7
E7
E7
ENDCHAR
STARTCHAR N
ENCODING 78
SWIDTH 600 0
DWIDTH 9 0
BBX 8 12 0 0
BITMAP
E7
E7
E7
F7
F7
FF
FF
EF
EF
E7
E7
E7
ENDCHAR
STARTCHAR O
ENCODING 79
SWIDTH 600 0
DWIDTH 9 0
BBX 8 12 0 0
BITMAP
7E
FF
E7
E7
E7
E7
E7
E7
E7
E7
FF
7E
ENDCHAR
STARTCHAR P
ENCODING 80
SWIDTH 600 0
DWIDTH 9 0
BBX 8 12 0 0
BITMAP
FE
FF
E7
E7
E7
FF
FE
E0
E0
E0
E0
E0
ENDCHAR
STARTCHAR Q
ENCODING 81
SWIDTH 600 0
DWIDTH 9 0
BBX 8 14 0 -2
BITMAP
7E
FF
E7
E7
E7
E7
E7
F7
F7
FF
FF
7E
0E
07
ENDCHAR
STARTCHAR R
ENCODING 82
SWIDTH 600 0
DWIDTH 9 0
BBX 8 12 0 0
BITMAP
FE
FF
E7
E7
E7
FF
FE
FC
EE
EE
E7
E7
ENDCHAR
STARTCHAR S
ENCODING 83
SWIDTH 600 0
DWIDTH 9 0
BBX 8 12 0 0
BITMAP
7B
FF
E7
E0
E0
7C
3E
07
07
E7
FF
DE
ENDCHAR
STARTCHAR T
ENCODING 84
SWIDTH 600 0
DWIDTH 9 0
BBX 9 12 0 0
BITMAP
FF80
FF80
1C00
1C00
1C00
1C00
1C00
1C00
1C00
1C00
3E00
3E00
ENDCHAR
STARTCHAR U
ENCODING 85
SWIDTH 600 0
DWIDTH 9 0
BBX 8 12 0 0
BITMAP
E7
E7
E7
E7
E7
E7
E7
E7
E7
E7
FF
7E
ENDCHAR
STARTCHAR V
ENCODING 86
SWIDTH 600 0
DWIDTH 9 0
BBX 8 12 0 0
BITMAP
E7
E7
E7
E7
66
7E
7E
3C
3C
3C
18
18
ENDCHAR
STARTCHAR W
ENCODING 87
SWIDTH 600 0
DWIDTH 9 0
BBX 9 12 0 0
BITMAP
E380
E380
EB80
EB80
FF80
7F00
7F00
7F00
7700
3600
2200
2200
ENDCHAR
STARTCHAR X
ENCODING 88
SWIDTH 600 0
DWIDTH 9 0
BBX 8 12 0 0
BITMAP
E7
E7
66
7E
7E
3C
3C
7E
7E
66
E7
E7
ENDCHAR
STARTCHAR Y
ENCODING 89
SWIDTH 600 0
DWIDTH 9 0
BBX 9 12 0 0
BITMAP
E380
E380
E380
7700
7700
3E00
3E00
1C00
1C00
1C00
3E00
3E00
ENDCHAR
STARTCHAR Z
ENCODING 90
SWIDTH 600 0
DWIDTH 9 0
BBX 8 12 0 0
BITMAP
FF
FF
CF
0E
1E
1C
38
78
70
F3
FF
FF
ENDCHAR
STARTCHAR bracketleft
ENCODING 91
SWIDTH 600 0
DWIDTH 9 0
BBX 5 14 2 -1
BITMAP
F8
F8
E0
E0
E0
E0
E0
E0
E0
E0
E0
E0
F8
F8
ENDCHAR
STARTCHAR backslash
ENCODING 92
SWIDTH 600 0
DWIDTH 9 0
BBX 8 12 0 0
BITMAP
E0
E0
70
70
38
38
1C
1C
0E
0E
07
07
ENDCHAR
STARTCHAR bracketright
ENCODING 93
SWIDTH 600 0
DWIDTH 9 0
BBX 5 14 2 -1
BITMAP
F8
F8
38
38
38
38
38
38
38
38
38
38
F8
F8
ENDCHAR
STARTCHAR asciicircum
ENCODING 94
SWIDTH 600 0
DWIDTH 9 0
BBX 8 5 0 5
BITMAP
18
3C
7E
FF
E7
ENDCHAR
STARTCHAR underscore
ENCODING 95
SWIDTH 600 0
DWIDTH 9 0
BBX 8 2 0 -1
BITMAP
FF
FF
ENDCHAR
STARTCHAR grave
ENCODING 96
SWIDTH 600 0
DWIDTH 9 0
BBX 4 5 3 7
BITMAP
E0
E0
E0
70
70
ENDCHAR
STARTCHAR a
ENCODING 97
SWIDTH 600 0
DWIDTH 9 0
BBX 9 8 0 0
BITMAP
7E00
FF00
0700
7F00
FF00
E700
FF80
7D80
ENDCHAR
STARTCHAR b
ENCODING 98
SWIDTH 600 0
DWIDTH 9 0
BBX 8 12 0 0
BITMAP
E0
E0
E0
E0
EE
FF
E7
E7
E7
E7
FF
DE
ENDCHAR
STARTCHAR c
ENCODING 99
SWIDTH 600 0
DWIDTH 9 0
BBX 8 8 0 0
BITMAP
7E
FF
E7
E0
E0
E7
FF
7E
ENDCHAR
STARTCHAR d
ENCODING 100
SWIDTH 600 0
DWIDTH 9 0
BBX 8 12 0 0
BITMAP
07
07
07
07
77
FF
E7
E7
E7
E7
FF
7B
ENDCHAR
STARTCHAR e
ENCODING 101
SWIDTH 600 0
DWIDTH 9 0
BBX 8 8 0 0
BITMAP
7E
FF
E7
FF
FF
E0
FF
7E
ENDCHAR
STARTCHAR f
ENCODING 102
SWIDTH 600 0
DWIDTH 9 0
BBX 9 12 0 0
BITMAP
1F00
3F80
3B80
3800
FE00
FE00
3800
3800
3800
3800
FE00
FE00
ENDCHAR
STARTCHAR g
ENCODING 103
SWIDTH 600 0
DWIDTH 9 0
BBX 9 10 0 -2
BITMAP
7B80
FF80
E700
E700
E700
FF00
7700
0700
7F00
7E00
ENDCHAR
STARTCHAR h
ENCODING 104
SWIDTH 600 0
DWIDTH 9 0
BBX 8 12 0 0
BITMAP
E0
E0
E0
E0
EE
FF
F7
E7
E7
E7
E7
E7
ENDCHAR
STARTCHAR i
ENCODING 105
SWIDTH 600 0
DWIDTH 9 0
BBX 7 11 1 0
BITMAP
38
38
00
F8
F8
38
38
38
38
FE
FE
ENDCHAR
STARTCHAR j
ENCODING 106
SWIDTH 600 0
DWIDTH 9 0
BBX 7 13 1 -2
BITMAP
0E
0E
00
3E
3E
0E
0E
0E
0E
0E
EE
FE
7C
ENDCHAR
STARTCHAR k
ENCODING 107
SWIDTH 600 0
DWIDTH 9 0
BBX 8 12 0 0
BITMAP
E0
E0
E0
E0
E7
E7
EE
FC
FC
EE
E7
E7
ENDCHAR
STARTCHAR l
ENCODING 108
SWIDTH 600 0
DWIDTH 9 0
BBX 7 12 1 0
BITMAP
F8
F8
38
38
38
38
38
38
38
38
FE
FE
ENDCHAR
STARTCHAR m
ENCODING 109
SWIDTH 600 0
DWIDTH 9 0
BBX 9 8 0 0
BITMAP
FF00
FF80
FF80
EB80
EB80
EB80
E380
E380
ENDCHAR
STARTCHAR n
ENCODING 110
SWIDTH 600 0
DWIDTH 9 0
BBX 8 8 0 0
BITMAP
EE
FF
E7
E7
E7
E7
E7
E7
ENDCHAR
STARTCHAR o
ENCODING 111
SWIDTH 600 0
DWIDTH 9 0
BBX 8 8 0 0
BITMAP
7E
FF
E7
E7
E7
E7
FF
7E
ENDCHAR
STARTCHAR p
ENCODING 112
SWIDTH 600 0
DWIDTH 9 0
BBX 8 10 0 -2
BITMAP
EE
FF
E7
E7
E7
E7
FF
EE
E0
E0
ENDCHAR
STARTCHAR q
ENCODING 113
SWIDTH 600 0
DWIDTH 9 0
BBX 8 10 0 -2
BITMAP
77
FF
E7
E7
E7
E7
FF
77
07
07
ENDCHAR
STARTCHAR r
ENCODING 114
SWIDTH 600 0
DWIDTH 9 0
BBX 8 8 0 0
BITMAP
EE
FF
F7
E0
E0
E0
E0
E0
ENDCHAR
STARTCHAR s
ENCODING 115
SWIDTH 600 0
DWIDTH 9 0
BBX 8 8 0 0
BITMAP
7E
FF
E0
FE
7F
07
FF
7E
ENDCHAR
STARTCHAR t
ENCODING 116
SWIDTH 600 0
DWIDTH 9 0
BBX 8 11 0 0
BITMAP
38
38
38
FE
FE
38
38
38
3F
3F
1E
ENDCHAR
STARTCHAR u
ENCODING 117
SWIDTH 600 0
DWIDTH 9 0
BBX 9 8 0 0
BITMAP
E700
E700
E700
E700
E700
E700
FF80
7B80
ENDCHAR
STARTCHAR v
ENCODING 118
SWIDTH 600 0
DWIDTH 9 0
BBX 8 8 0 0
BITMAP
E7
E7
E7
7E
7E
3C
3C
18
ENDCHAR
STARTCHAR w
ENCODING 119
SWIDTH 600 0
DWIDTH 9 0
BBX 9 8 0 0
BITMAP
E380
EB80
FF80
7F00
7F00
7F00
3600
3600
ENDCHAR
STARTCHAR x
ENCODING 120
SWIDTH 600 0
DWIDTH 9 0
BBX 8 8 0 0
BITMAP
E7
E7
7E
3C
3C
7E
E7
E7
ENDCHAR
STARTCHAR y
ENCODING 121
SWIDTH 600 0
DWIDTH 9 0
BBX 8 10 0 -2
BITMAP
E7
E7
E7
77
7E
3E
3C
1C
78
70
ENDCHAR
STARTCHAR z
ENCODING 122
SWIDTH 600 0
DWIDTH 9 0
BBX 8 8 0 0
BITMAP
FF
FF
1E
3C
78
F0
FF
FF
ENDCHAR
STARTCHAR braceleft
ENCODING 123
SWIDTH 600 0
DWIDTH 9 0
BBX 7 14 1 -1
BITMAP
1E
3E
38
38
38
78
E0
E0
78
38
38
38
3E
1E
ENDCHAR
STARTCHAR bar
ENCODING 124
SWIDTH 600 0
DWIDTH 9 0
BBX 3 14 3 -1
BITMAP
E0
E0
E0
E0
E0
E0
E0
E0
E0
E0
E0
E0
E0
E0
ENDCHAR
STARTCHAR braceright
ENCODING 125
SWIDTH 600 0
DWIDTH 9 0
BBX 7 14 1 -1
BITMAP
F0
F8
38
38
38
3C
0E
0E
3C
38
38
38
F8
F0
ENDCHAR
STARTCHAR asciitilde
ENCODING 126
SWIDTH 600 0
DWIDTH 9 0
BBX 8 3 0 7
BITMAP
7B
FF
DE
ENDCHAR
STARTCHAR nonbreakingspace
ENCODING 160
SWIDTH 600 0
DWIDTH 9 0
BBX 1 1 0 0
BITMAP
00
ENDCHAR
STARTCHAR exclamdown
ENCODING 161
SWIDTH 600 0
DWIDTH 9 0
BBX 3 12 3 -1
BITMAP
E0
E0
00
00
E0
E0
E0
E0
E0
E0
E0
E0
ENDCHAR
STARTCHAR cent
ENCODING 162
SWIDTH 600 0
DWIDTH 9 0
BBX 8 12 0 0
BITMAP
1C
1C
7E
FF
FF
DC
DC
FF
FF
7E
1C
1C
ENDCHAR
STARTCHAR sterling
ENCODING 163
SWIDTH 600 0
DWIDTH 9 0
BBX 9 12 0 0
BITMAP
3E00
7F00
7700
7000
7000
FC00
FC00
7000
7000
7B80
FF80
F700
ENDCHAR
STARTCHAR currency
ENCODING 164
SWIDTH 600 0
DWIDTH 9 0
BBX 9 8 0 2
BITMAP
E380
FF80
7F00
7700
7700
7F00
FF80
E380
ENDCHAR
STARTCHAR yen
ENCODING 165
SWIDTH 600 0
DWIDTH 9 0
BBX 9 12 0 0
BITMAP
E380
E380
E380
7700
7700
3E00
3E00
7F00
1C00
7F00
1C00
1C00
ENDCHAR
STARTCHAR brokenbar
ENCODING 166
SWIDTH 600 0
DWIDTH 9 0
BBX 3 14 3 -1
BITMAP
E0
E0
E0
E0
E0
E0
00
00
E0
E0
E0
E0
E0
E0
ENDCHAR
STARTCHAR section
ENCODING 167
SWIDTH 600 0
DWIDTH 9 0
BBX 8 12 0 0
BITMAP
7E
FF
F3
78
FC
EE
77
3F
1E
EF
FF
7E
ENDCHAR
STARTCHAR dieresis
ENCODING 168
SWIDTH 600 0
DWIDTH 9 0
BBX 8 2 0 9
BITMAP
E7
E7
ENDCHAR
STARTCHAR copyright
ENCODING 169
SWIDTH 600 0
DWIDTH 9 0
BBX 9 9 0 2
BITMAP
3E00
7F00
EF80
F380
F380
F380
EF80
7F00
3E00
ENDCHAR
STARTCHAR ordfeminine
ENCODING 170
SWIDTH 600 0
DWIDTH 9 0
BBX 8 7 1 5
BITMAP
7C
FE
0E
7E
EE
FF
7F
ENDCHAR
STARTCHAR guillemotleft
ENCODING 171
SWIDTH 600 0
DWIDTH 9 0
BBX 9 7 0 0
BITMAP
1D80
3B80
7700
EE00
7700
3B80
1D80
ENDCHAR
STARTCHAR logicalnot
ENCODING 172
SWIDTH 600 0
DWIDTH 9 0
BBX 8 4 0 3
BITMAP
FF
FF
07
07
ENDCHAR
STARTCHAR softhyphen
ENCODING 173
SWIDTH 600 0
DWIDTH 9 0
BBX 8 2 0 5
BITMAP
FF
FF
ENDCHAR
STARTCHAR registered
ENCODING 174
SWIDTH 600 0
DWIDTH 9 0
BBX 9 8 0 4
BITMAP
3E00
7F00
FB80
F780
FB80
F780
7F00
3E00
ENDCHAR
STARTCHAR macron
ENCODING 175
SWIDTH 600 0
DWIDTH 9 0
BBX 8 2 0 9
BITMAP
FF
FF
ENDCHAR
STARTCHAR degree
ENCODING 176
SWIDTH 600 0
DWIDTH 9 0
BBX 7 6 1 6
BITMAP
7C
FE
EE
EE
FE
7C
ENDCHAR
STARTCHAR plusminus
ENCODING 177
SWIDTH 600 0
DWIDTH 9 0
BBX 7 10 1 1
BITMAP
38
38
FE
FE
38
38
00
00
FE
FE
ENDCHAR
STARTCHAR twosuperior
ENCODING 178
SWIDTH 600 0
DWIDTH 9 0
BBX 7 7 1 5
BITMAP
7C
FE
0E
7C
E0
FE
FE
ENDCHAR
STARTCHAR threesuperior
ENCODING 179
SWIDTH 600 0
DWIDTH 9 0
BBX 7 7 1 5
BITMAP
7C
FE
0E
7C
0E
FE
7C
ENDCHAR
STARTCHAR acute
ENCODING 180
SWIDTH 600 0
DWIDTH 9 0
BBX 5 3 3 9
BITMAP
38
70
E0
ENDCHAR
STARTCHAR mu
ENCODING 181
SWIDTH 600 0
DWIDTH 9 0
BBX 8 10 0 -2
BITMAP
E7
E7
E7
E7
E7
F7
FF
EE
E0
E0
ENDCHAR
STARTCHAR paragraph
ENCODING 182
SWIDTH 600 0
DWIDTH 9 0
BBX 8 12 0 0
BITMAP
7F
FF
FB
FB
FB
7B
1B
1B
1B
1B
1B
1B
ENDCHAR
STARTCHAR periodcentered
ENCODING 183
SWIDTH 600 0
DWIDTH 9 0
BBX 3 2 3 5
BITMAP
E0
E0
ENDCHAR
STARTCHAR cedilla
ENCODING 184
SWIDTH 600 0
DWIDTH 9 0
BBX 4 2 2 -2
BITMAP
70
E0
ENDCHAR
STARTCHAR onesuperior
ENCODING 185
SWIDTH 600 0
DWIDTH 9 0
BBX 7 7 1 5
BITMAP
78
F8
38
38
38
FE
FE
ENDCHAR
STARTCHAR ordmasculine
ENCODING 186
SWIDTH 600 0
DWIDTH 9 0
BBX 7 7 1 5
BITMAP
7C
FE
EE
EE
EE
FE
7C
ENDCHAR
STARTCHAR guillemotright
ENCODING 187
SWIDTH 600 0
DWIDTH 9 0
BBX 9 7 0 0
BITMAP
DC00
EE00
7700
3B80
7700
EE00
DC00
ENDCHAR
STARTCHAR onequarter
ENCODING 188
SWIDTH 600 0
DWIDTH 9 0
BBX 8 14 0 -1
BITMAP
40
C7
47
4E
EE
1C
1C
38
38
72
76
EA
EF
02
ENDCHAR
STARTCHAR onehalf
ENCODING 189
SWIDTH 600 0
DWIDTH 9 0
BBX 8 14 0 -1
BITMAP
40
C7
47
4E
EE
1C
1C
38
38
7E
71
E6
E8
0F
ENDCHAR
STARTCHAR threequarters
ENCODING 190
SWIDTH 600 0
DWIDTH 9 0
BBX 8 14 0 -1
BITMAP
E0
17
67
1E
EE
1C
1C
38
38
72
76
EA
EF
02
ENDCHAR
STARTCHAR questiondown
ENCODING 191
SWIDTH 600 0
DWIDTH 9 0
BBX 8 12 0 -1
BITMAP
1C
1C
00
00
1C
3C
78
F0
E0
E7
FF
7E
ENDCHAR
STARTCHAR Agrave
ENCODING 192
SWIDTH 600 0
DWIDTH 9 0
BBX 9 13 0 0
BITMAP
7000
3800
1C00
1C00
3E00
3E00
7700
7700
7F00
7F00
E380
E380
E380
ENDCHAR
STARTCHAR Aacute
ENCODING 193
SWIDTH 600 0
DWIDTH 9 0
BBX 9 13 0 0
BITMAP
0700
0E00
1C00
1C00
3E00
3E00
7700
7700
7F00
7F00
E380
E380
E380
ENDCHAR
STARTCHAR Acircumflex
ENCODING 194
SWIDTH 600 0
DWIDTH 9 0
BBX 9 13 0 0
BITMAP
1C00
3E00
7700
1C00
3E00
3E00
7700
7700
7F00
7F00
E380
E380
E380
ENDCHAR
STARTCHAR Atilde
ENCODING 195
SWIDTH 600 0
DWIDTH 9 0
BBX 9 13 0 0
BITMAP
3B00
7F00
6E00
1C00
3E00
3E00
7700
7700
7F00
7F00
E380
E380
E380
ENDCHAR
STARTCHAR Adieresis
ENCODING 196
SWIDTH 600 0
DWIDTH 9 0
BBX 9 13 0 0
BITMAP
7700
7700
0000
1C00
3E00
3E00
7700
7700
7F00
7F00
E380
E380
E380
ENDCHAR
STARTCHAR Aring
ENCODING 197
SWIDTH 600 0
DWIDTH 9 0
BBX 9 13 0 0
BITMAP
1C00
3600
3600
1C00
3E00
3E00
7700
7700
7F00
7F00
E380
E380
E380
ENDCHAR
STARTCHAR AE
ENCODING 198
SWIDTH 600 0
DWIDTH 9 0
BBX 9 12 0 0
BITMAP
3F80
7F80
7E00
EE00
EE00
EF80
FF80
FE00
EE00
EE00
EF80
EF80
ENDCHAR
STARTCHAR Ccedilla
ENCODING 199
SWIDTH 600 0
DWIDTH 9 0
BBX 8 14 0 -2
BITMAP
7E
FF
E7
E0
E0
E0
E0
E0
E0
E7
FF
7E
1C
38
ENDCHAR
STARTCHAR Egrave
ENCODING 200
SWIDTH 600 0
DWIDTH 9 0
BBX 8 13 0 0
BITMAP
70
38
1C
FF
FF
E3
E0
FC
FC
E0
E3
FF
FF
ENDCHAR
STARTCHAR Eacute
ENCODING 201
SWIDTH 600 0
DWIDTH 9 0
BBX 8 13 0 0
BITMAP
07
0E
1C
FF
FF
E3
E0
FC
FC
E0
E3
FF
FF
ENDCHAR
STARTCHAR Ecircumflex
ENCODING 202
SWIDTH 600 0
DWIDTH 9 0
BBX 8 13 0 0
BITMAP
1C
3E
77
FF
FF
E3
E0
FC
FC
E0
E3
FF
FF
ENDCHAR
STARTCHAR Edieresis
ENCODING 203
SWIDTH 600 0
DWIDTH 9 0
BBX 8 13 0 0
BITMAP
E7
E7
00
FF
FF
E3
E0
FC
FC
E0
E3
FF
FF
ENDCHAR
STARTCHAR Igrave
ENCODING 204
SWIDTH 600 0
DWIDTH 9 0
BBX 7 13 1 0
BITMAP
E0
70
38
FE
FE
38
38
38
38
38
38
FE
FE
ENDCHAR
STARTCHAR Iacute
ENCODING 205
SWIDTH 600 0
DWIDTH 9 0
BBX 7 13 1 0
BITMAP
0E
1C
38
FE
FE
38
38
38
38
38
38
FE
FE
ENDCHAR
STARTCHAR Icircumflex
ENCODING 206
SWIDTH 600 0
DWIDTH 9 0
BBX 7 13 1 0
BITMAP
38
7C
EE
FE
FE
38
38
38
38
38
38
FE
FE
ENDCHAR
STARTCHAR Idieresis
ENCODING 207
SWIDTH 600 0
DWIDTH 9 0
BBX 7 13 1 0
BITMAP
EE
EE
00
FE
FE
38
38
38
38
38
38
FE
FE
ENDCHAR
STARTCHAR Eth
ENCODING 208
SWIDTH 600 0
DWIDTH 9 0
BBX 8 12 0 0
BITMAP
FE
FF
E7
E7
E7
F7
F7
E7
E7
E7
FF
FE
ENDCHAR
STARTCHAR Ntilde
ENCODING 209
SWIDTH 600 0
DWIDTH 9 0
BBX 8 13 0 0
BITMAP
3B
7F
6E
E7
E7
F7
F7
FF
FF
EF
EF
E7
E7
ENDCHAR
STARTCHAR Ograve
ENCODING 210
SWIDTH 600 0
DWIDTH 9 0
BBX 8 13 0 0
BITMAP
E0
70
38
7E
FF
E7
E7
E7
E7
E7
E7
FF
7E
ENDCHAR
STARTCHAR Oacute
ENCODING 211
SWIDTH 600 0
DWIDTH 9 0
BBX 8 13 0 0
BITMAP
07
0E
1C
7E
FF
E7
E7
E7
E7
E7
E7
FF
7E
ENDCHAR
STARTCHAR Ocircumflex
ENCODING 212
SWIDTH 600 0
DWIDTH 9 0
BBX 8 13 0 0
BITMAP
1C
3E
77
7E
FF
E7
E7
E7
E7
E7
E7
FF
7E
ENDCHAR
STARTCHAR Otilde
ENCODING 213
SWIDTH 600 0
DWIDTH 9 0
BBX 8 13 0 0
BITMAP
3B
7F
6E
7E
FF
E7
E7
E7
E7
E7
E7
FF
7E
ENDCHAR
STARTCHAR Odieresis
ENCODING 214
SWIDTH 600 0
DWIDTH 9 0
BBX 8 13 0 0
BITMAP
E7
E7
00
7E
FF
E7
E7
E7
E7
E7
E7
FF
7E
ENDCHAR
STARTCHAR multiply
ENCODING 215
SWIDTH 600 0
DWIDTH 9 0
BBX 8 8 0 2
BITMAP
E7
E7
7E
3C
3C
7E
E7
E7
ENDCHAR
STARTCHAR Oslash
ENCODING 216
SWIDTH 600 0
DWIDTH 9 0
BBX 8 14 0 -1
BITMAP
03
7F
FF
EF
EF
EF
EF
F7
F7
F7
F7
FF
FE
C0
ENDCHAR
STARTCHAR Ugrave
ENCODING 217
SWIDTH 600 0
DWIDTH 9 0
BBX 8 13 0 0
BITMAP
E0
70
38
E7
E7
E7
E7
E7
E7
E7
E7
FF
7E
ENDCHAR
STARTCHAR Uacute
ENCODING 218
SWIDTH 600 0
DWIDTH 9 0
BBX 8 13 0 0
BITMAP
07
0E
1C
E7
E7
E7
E7
E7
E7
E7
E7
FF
7E
ENDCHAR
STARTCHAR Ucircumflex
ENCODING 219
SWIDTH 600 0
DWIDTH 9 0
BBX 8 13 0 0
BITMAP
1C
3E
77
E7
E7
E7
E7
E7
E7
E7
E7
FF
7E
ENDCHAR
STARTCHAR Udieresis
ENCODING 220
SWIDTH 600 0
DWIDTH 9 0
BBX 8 13 0 0
BITMAP
E7
E7
00
E7
E7
E7
E7
E7
E7
E7
E7
FF
7E
ENDCHAR
STARTCHAR Yacute
ENCODING 221
SWIDTH 600 0
DWIDTH 9 0
BBX 9 13 0 0
BITMAP
0700
0E00
1C00
E380
E380
7700
7700
3E00
3E00
1C00
1C00
3E00
3E00
ENDCHAR
STARTCHAR Thorn
ENCODING 222
SWIDTH 600 0
DWIDTH 9 0
BBX 8 12 0 0
BITMAP
E0
E0
EE
FF
E7
E7
E7
E7
FF
EE
E0
E0
ENDCHAR
STARTCHAR germandbls
ENCODING 223
SWIDTH 600 0
DWIDTH 9 0
BBX 8 12 0 0
BITMAP
7C
FE
EE
EE
FC
FC
FE
E7
E7
E7
EF
EE
ENDCHAR
STARTCHAR agrave
ENCODING 224
SWIDTH 600 0
DWIDTH 9 0
BBX 9 12 0 0
BITMAP
E000
7000
3800
0000
7E00
FF00
0700
7F00
FF00
E700
FF80
7D80
ENDCHAR
STARTCHAR aacute
ENCODING 225
SWIDTH 600 0
DWIDTH 9 0
BBX 9 12 0 0
BITMAP
0700
0E00
1C00
0000
7E00
FF00
0700
7F00
FF00
E700
FF80
7D80
ENDCHAR
STARTCHAR acircumflex
ENCODING 226
SWIDTH 600 0
DWIDTH 9 0
BBX 9 12 0 0
BITMAP
1C00
3E00
7700
0000
7E00
FF00
0700
7F00
FF00
E700
FF80
7D80
ENDCHAR
STARTCHAR atilde
ENCODING 227
SWIDTH 600 0
DWIDTH 9 0
BBX 9 12 0 0
BITMAP
3B00
7F00
6E00
0000
7E00
FF00
0700
7F00
FF00
E700
FF80
7D80
ENDCHAR
STARTCHAR adieresis
ENCODING 228
SWIDTH 600 0
DWIDTH 9 0
BBX 9 11 0 0
BITMAP
E700
E700
0000
7E00
FF00
0700
7F00
FF00
E700
FF80
7D80
ENDCHAR
STARTCHAR aring
ENCODING 229
SWIDTH 600 0
DWIDTH 9 0
BBX 9 12 0 0
BITMAP
1C00
3600
3600
1C00
7E00
FF00
0700
7F00
FF00
E700
FF80
7D80
ENDCHAR
STARTCHAR ae
ENCODING 230
SWIDTH 600 0
DWIDTH 9 0
BBX 9 8 0 0
BITMAP
7B00
FF80
1D80
7F80
FF00
DC00
FF80
7F00
ENDCHAR
STARTCHAR ccedilla
ENCODING 231
SWIDTH 600 0
DWIDTH 9 0
BBX 8 10 0 -2
BITMAP
7E
FF
E7
E0
E0
E7
FF
7E
1C
38
ENDCHAR
STARTCHAR egrave
ENCODING 232
SWIDTH 600 0
DWIDTH 9 0
BBX 8 12 0 0
BITMAP
E0
70
38
00
7E
FF
E7
FF
FF
E0
FF
7E
ENDCHAR
STARTCHAR eacute
ENCODING 233
SWIDTH 600 0
DWIDTH 9 0
BBX 8 12 0 0
BITMAP
07
0E
1C
00
7E
FF
E7
FF
FF
E0
FF
7E
ENDCHAR
STARTCHAR ecircumflex
ENCODING 234
SWIDTH 600 0
DWIDTH 9 0
BBX 8 12 0 0
BITMAP
1C
3E
77
00
7E
FF
E7
FF
FF
E0
FF
7E
ENDCHAR
STARTCHAR edieresis
ENCODING 235
SWIDTH 600 0
DWIDTH 9 0
BBX 8 11 0 0
BITMAP
E7
E7
00
7E
FF
E7
FF
FF
E0
FF
7E
ENDCHAR
STARTCHAR igrave
ENCODING 236
SWIDTH 600 0
DWIDTH 9 0
BBX 7 12 1 0
BITMAP
E0
70
38
00
F8
F8
38
38
38
38
FE
FE
ENDCHAR
STARTCHAR iacute
ENCODING 237
SWIDTH 600 0
DWIDTH 9 0
BBX 7 12 1 0
BITMAP
0E
1C
38
00
F8
F8
38
38
38
38
FE
FE
ENDCHAR
STARTCHAR icircumflex
ENCODING 238
SWIDTH 600 0
DWIDTH 9 0
BBX 7 12 1 0
BITMAP
38
7C
EE
00
F8
F8
38
38
38
38
FE
FE
ENDCHAR
STARTCHAR idieresis
ENCODING 239
SWIDTH 600 0
DWIDTH 9 0
BBX 7 11 1 0
BITMAP
EE
EE
00
F8
F8
38
38
38
38
FE
FE
ENDCHAR
STARTCHAR eth
ENCODING 240
SWIDTH 600 0
DWIDTH 9 0
BBX 8 12 0 0
BITMAP
E0
7E
38
FC
7E
FF
E7
E7
E7
E7
FF
7E
ENDCHAR
STARTCHAR ntilde
ENCODING 241
SWIDTH 600 0
DWIDTH 9 0
BBX 8 12 0 0
BITMAP
7B
FF
DE
00
EE
FF
F7
E7
E7
E7
E7
E7
ENDCHAR
STARTCHAR ograve
ENCODING 242
SWIDTH 600 0
DWIDTH 9 0
BBX 8 12 0 0
BITMAP
E0
70
38
00
7E
FF
E7
E7
E7
E7
FF
7E
ENDCHAR
STARTCHAR oacute
ENCODING 243
SWIDTH 600 0
DWIDTH 9 0
BBX 8 12 0 0
BITMAP
07
0E
1C
00
7E
FF
E7
E7
E7
E7
FF
7E
ENDCHAR
STARTCHAR ocircumflex
ENCODING 244
SWIDTH 600 0
DWIDTH 9 0
BBX 8 12 0 0
BITMAP
1C
3E
77
00
7E
FF
E7
E7
E7
E7
FF
7E
ENDCHAR
STARTCHAR otilde
ENCODING 245
SWIDTH 600 0
DWIDTH 9 0
BBX 8 12 0 0
BITMAP
3B
7F
6E
00
7E
FF
E7
E7
E7
E7
FF
7E
ENDCHAR
STARTCHAR odieresis
ENCODING 246
SWIDTH 600 0
DWIDTH 9 0
BBX 8 11 0 0
BITMAP
E7
E7
00
7E
FF
E7
E7
E7
E7
FF
7E
ENDCHAR
STARTCHAR divide
ENCODING 247
SWIDTH 600 0
DWIDTH 9 0
BBX 7 8 1 2
BITMAP
38
38
00
FE
FE
00
38
38
ENDCHAR
STARTCHAR oslash
ENCODING 248
SWIDTH 600 0
DWIDTH 9 0
BBX 8 10 0 -1
BITMAP
03
7F
FF
EF
EF
F7
F7
FF
FE
C0
ENDCHAR
STARTCHAR ugrave
ENCODING 249
SWIDTH 600 0
DWIDTH 9 0
BBX 9 12 0 0
BITMAP
E000
7000
3800
0000
E700
E700
E700
E700
E700
E700
FF80
7B80
ENDCHAR
STARTCHAR uacute
ENCODING 250
SWIDTH 600 0
DWIDTH 9 0
BBX 9 12 0 0
BITMAP
0700
0E00
1C00
0000
E700
E700
E700
E700
E700
E700
FF80
7B80
ENDCHAR
STARTCHAR ucircumflex
ENCODING 251
SWIDTH 600 0
DWIDTH 9 0
BBX 9 12 0 0
BITMAP
1C00
3E00
7700
0000
E700
E700
E700
E700
E700
E700
FF80
7B80
ENDCHAR
STARTCHAR udieresis
ENCODING 252
SWIDTH 600 0
DWIDTH 9 0
BBX 9 11 0 0
BITMAP
E700
E700
0000
E700
E700
E700
E700
E700
E700
FF80
7B80
ENDCHAR
STARTCHAR yacute
ENCODING 253
SWIDTH 600 0
DWIDTH 9 0
BBX 8 14 0 -2
BITMAP
07
0E
1C
00
E7
E7
E7
77
7E
3E
3C
1C
78
70
ENDCHAR
STARTCHAR thorn
ENCODING 254
SWIDTH 600 0
DWIDTH 9 0
BBX 8 14 0 -2
BITMAP
E0
E0
E0
EE
FF
E7
E7
E7
E7
FF
EE
E0
E0
E0
ENDCHAR
STARTCHAR ydieresis
ENCODING 255
SWIDTH 600 0
DWIDTH 9 0
BBX 8 13 0 -2
BITMAP
E7
E7
00
E7
E7
E7
77
7E
3E
3C
1C
78
70
ENDCHAR
ENDFONT
